<svg width="32" height="32" viewBox="0 0 32 32" fill="none" xmlns="http://www.w3.org/2000/svg">
<path d="M16 1C9.85 1 4.55 4.7 2.25 10H29.75C27.45 4.7 22.15 1 16 1Z" fill="#3E4347"/>
<path d="M16 31C22.15 31 27.45 27.3 29.75 22H2.25C4.55 27.3 9.85 31 16 31Z" fill="#75A843"/>
<path d="M31 16C31 14.6 30.8 13.25 30.45 12H1.55C1.2 13.25 1 14.6 1 16C1 17.4 1.2 18.75 1.55 20H30.45C30.8 18.75 31 17.4 31 16Z" fill="#C94747"/>
<path d="M1.8498 21C1.9498 21.35 2.0998 21.65 2.2498 22H29.7498C29.8998 21.65 30.0498 21.35 30.1498 21C30.2498 20.65 30.3498 20.35 30.4498 20H1.5498C1.6498 20.35 1.7498 20.65 1.8498 21ZM30.1498 11C30.0498 10.65 29.8998 10.35 29.7498 10H2.2498C2.0998 10.35 1.9498 10.65 1.8498 11C1.7498 11.35 1.6498 11.65 1.5498 12H30.4498C30.3498 11.65 30.2498 11.35 30.1498 11Z" fill="white"/>
<path d="M10.0996 26.15L10.4496 26.35L20.0996 9.65C20.6496 9.5 20.9496 8.95 21.2996 8.45C21.4996 8.1 22.3496 6.65 22.6996 4.8C21.2496 6.05 20.4496 7.45 20.2496 7.85C19.9496 8.4 19.6496 8.9 19.7996 9.5L10.0996 26.15Z" fill="white"/>
<path d="M21.8998 26.15L21.5498 26.35L11.8998 9.65C11.3498 9.5 11.0498 8.95 10.6998 8.45C10.4998 8.1 9.6498 6.65 9.2998 4.8C10.7498 6.05 11.5498 7.45 11.7498 7.85C12.0498 8.4 12.3498 8.9 12.1998 9.5L21.8998 26.15Z" fill="white"/>
<path d="M20 16C20 21.5 16 26 16 26C16 26 12 21.5 12 16C12 10.5 16 6 16 6C16 6 20 10.5 20 16Z" fill="#C94747"/>
<path d="M13.05 20C13.9 19.15 14.5 17.7 14.5 16C14.5 14.3 13.95 12.85 13.05 12C12.7 13.15 12.5 14.55 12.5 16C12.5 17.45 12.7 18.85 13.05 20ZM18.95 12C18.1 12.85 17.5 14.3 17.5 16C17.5 17.7 18.05 19.15 18.95 20C19.3 18.85 19.5 17.45 19.5 16C19.5 14.55 19.3 13.15 18.95 12Z" fill="#3E4347"/>
<path d="M16.0002 17.2C16.442 17.2 16.8002 16.6627 16.8002 16C16.8002 15.3373 16.442 14.8 16.0002 14.8C15.5584 14.8 15.2002 15.3373 15.2002 16C15.2002 16.6627 15.5584 17.2 16.0002 17.2Z" fill="white"/>
<path d="M15.7002 6.35001C15.4002 7.20001 15.2002 8.80001 15.2002 10.55C15.2002 12.35 15.4002 13.9 15.7002 14.75C15.8002 13.5 15.9002 12.1 15.9002 10.55C15.9002 9.05001 15.8502 7.60001 15.7002 6.35001ZM16.3002 6.35001C16.6002 7.20001 16.8002 8.80001 16.8002 10.55C16.8002 12.35 16.6002 13.9 16.3002 14.75C16.2002 13.5 16.1002 12.1 16.1002 10.55C16.1002 9.05001 16.1502 7.60001 16.3002 6.35001ZM15.7002 17.2C15.4002 18.05 15.2002 19.65 15.2002 21.4C15.2002 23.2 15.4002 24.75 15.7002 25.6C15.8002 24.35 15.9002 22.95 15.9002 21.4C15.9002 19.9 15.8502 18.45 15.7002 17.2ZM16.3002 17.2C16.6002 18.05 16.8002 19.65 16.8002 21.4C16.8002 23.2 16.6002 24.75 16.3002 25.6C16.2002 24.35 16.1002 22.95 16.1002 21.4C16.1002 19.9 16.1502 18.45 16.3002 17.2Z" fill="white"/>
</svg>
