<svg width="90" height="90" viewBox="0 0 90 90" fill="none" xmlns="http://www.w3.org/2000/svg">
<path d="M18.4502 76.0502L25.0877 81.1877C25.9502 82.0502 27.8627 82.4625 29.1752 82.4625H37.3127C39.9002 82.4625 42.6752 80.5502 43.3127 77.9627L48.4502 62.325C49.5377 59.325 47.5877 56.7376 44.3627 56.7376H35.7752C34.5002 56.7376 33.4127 55.6498 33.6377 54.1498L34.7252 47.2875C35.1377 45.375 33.8627 43.2 31.9502 42.5625C30.2252 41.925 28.0877 42.7876 27.2252 44.0626L18.4502 57.15" stroke="#00BF63" stroke-width="1.5" stroke-miterlimit="10"/>
<path d="M7.49902 76.0503V55.0504C7.49902 52.0504 8.77402 50.9625 11.774 50.9625H13.9115C16.9115 50.9625 18.1865 52.0504 18.1865 55.0504V76.0503C18.1865 79.0503 16.9115 80.1376 13.9115 80.1376H11.774C8.77402 80.1376 7.49902 79.0878 7.49902 76.0503Z" stroke="#00BF63" stroke-width="1.5" stroke-linecap="round" stroke-linejoin="round"/>
<path d="M71.5481 13.9498L64.9106 8.81235C64.0481 7.94985 62.1356 7.53748 60.8231 7.53748H52.6856C50.0981 7.53748 47.3231 9.44979 46.6856 12.0373L41.5481 27.675C40.4606 30.675 42.4106 33.2624 45.6356 33.2624H54.2231C55.4981 33.2624 56.5856 34.3502 56.3606 35.8502L55.2731 42.7125C54.8606 44.625 56.1356 46.8 58.0481 47.4375C59.7731 48.075 61.9106 47.2124 62.7731 45.9374L71.5481 32.85" stroke="#00BF63" stroke-width="1.5" stroke-miterlimit="10"/>
<path d="M82.4971 13.9504V34.9503C82.4971 37.9503 81.2221 39.0381 78.2221 39.0381H76.0846C73.0846 39.0381 71.8096 37.9503 71.8096 34.9503V13.9504C71.8096 10.9504 73.0846 9.86304 76.0846 9.86304H78.2221C81.2221 9.86304 82.4971 10.9129 82.4971 13.9504Z" stroke="#00BF63" stroke-width="1.5" stroke-linecap="round" stroke-linejoin="round"/>
</svg>
