<svg width="404" height="391" viewBox="0 0 404 391" fill="none" xmlns="http://www.w3.org/2000/svg">
<path d="M47.0316 78.8121C61.1656 102.593 91.4241 110.682 91.4241 110.682C91.4241 110.682 98.7801 80.2366 84.646 56.456C70.512 32.6753 40.2535 24.5864 40.2535 24.5864C40.2535 24.5864 32.8976 55.0314 47.0316 78.8121Z" fill="#FFD300"/>
<path d="M91.4548 110.663L40.2842 24.5679" stroke="white" stroke-width="0.341508" stroke-miterlimit="10"/>
<path d="M58.4737 55.1712L42.4497 52.2383" stroke="white" stroke-width="0.341508" stroke-miterlimit="10"/>
<path d="M67.0994 69.3025L68.9031 42.6241" stroke="white" stroke-width="0.341508" stroke-miterlimit="10"/>
<path d="M71.807 77.604L47.9795 72.9604" stroke="white" stroke-width="0.341508" stroke-miterlimit="10"/>
<path d="M78.5374 88.5486L85.7785 65.6658" stroke="white" stroke-width="0.341508" stroke-miterlimit="10"/>
<path d="M84.2073 98.0884L66.48 95.7153" stroke="white" stroke-width="0.341508" stroke-miterlimit="10"/>
<path d="M52.3499 117.475C67.6383 122.358 83.8752 114.207 83.8752 114.207C83.8752 114.207 75.3664 98.1538 60.1094 93.2521C44.8523 88.3504 28.5841 96.5206 28.5841 96.5206C28.5841 96.5206 37.0613 112.663 52.3499 117.475Z" fill="#FFD300"/>
<path d="M83.9001 114.248L28.5776 96.5808" stroke="white" stroke-width="0.341508" stroke-miterlimit="10"/>
<path d="M48.2459 102.862L40.1647 107.75" stroke="white" stroke-width="0.341508" stroke-miterlimit="10"/>
<path d="M57.4277 105.677L47.9463 93.4119" stroke="white" stroke-width="0.341508" stroke-miterlimit="10"/>
<path d="M62.6585 107.46L50.5405 114.62" stroke="white" stroke-width="0.341508" stroke-miterlimit="10"/>
<path d="M69.7971 109.622L64.1364 96.91" stroke="white" stroke-width="0.341508" stroke-miterlimit="10"/>
<path d="M75.9236 111.58L67.3196 117.373" stroke="white" stroke-width="0.341508" stroke-miterlimit="10"/>
<path d="M91.5506 74.1406C87.8127 89.7381 97.1551 105.338 97.1551 105.338C97.1551 105.338 112.533 95.6465 116.255 80.0448C119.976 64.4431 110.669 48.8788 110.669 48.8788C110.669 48.8788 95.2718 58.5389 91.5506 74.1406Z" fill="#FFD300"/>
<path d="M97.1561 105.338L110.651 48.8476" stroke="white" stroke-width="0.341508" stroke-miterlimit="10"/>
<path d="M105.854 68.9199L100.378 61.2302" stroke="white" stroke-width="0.341508" stroke-miterlimit="10"/>
<path d="M103.728 78.2853L115.259 67.9254" stroke="white" stroke-width="0.341508" stroke-miterlimit="10"/>
<path d="M102.33 83.6408L94.3003 72.082" stroke="white" stroke-width="0.341508" stroke-miterlimit="10"/>
<path d="M100.717 90.9197L112.968 84.3169" stroke="white" stroke-width="0.341508" stroke-miterlimit="10"/>
<path d="M99.2216 97.1816L92.8081 89.0315" stroke="white" stroke-width="0.341508" stroke-miterlimit="10"/>
<path d="M365.225 170.045C356.957 196.444 329.379 211.293 329.379 211.293C329.379 211.293 315.2 183.365 323.469 156.966C331.738 130.566 359.316 115.718 359.316 115.718C359.316 115.718 373.494 143.646 365.225 170.045Z" fill="#FFD300"/>
<path d="M329.344 211.282L359.28 115.707" stroke="white" stroke-width="0.341508" stroke-miterlimit="10"/>
<path d="M348.639 149.68L363.555 143.131" stroke="white" stroke-width="0.341508" stroke-miterlimit="10"/>
<path d="M343.505 165.42L335.598 139.876" stroke="white" stroke-width="0.341508" stroke-miterlimit="10"/>
<path d="M340.839 174.583L362.953 164.57" stroke="white" stroke-width="0.341508" stroke-miterlimit="10"/>
<path d="M336.813 186.784L324.49 166.188" stroke="white" stroke-width="0.341508" stroke-miterlimit="10"/>
<path d="M333.496 197.375L350.198 190.977" stroke="white" stroke-width="0.341508" stroke-miterlimit="10"/>
<path d="M368.965 208.892C355.215 217.169 337.536 212.982 337.536 212.982C337.536 212.982 342.113 195.399 355.829 187.111C369.544 178.823 387.258 183.022 387.258 183.022C387.258 183.022 382.732 200.684 368.965 208.892Z" fill="#FFD300"/>
<path d="M337.521 213.028L387.278 183.079" stroke="white" stroke-width="0.341508" stroke-miterlimit="10"/>
<path d="M369.589 193.727L378.58 196.619" stroke="white" stroke-width="0.341508" stroke-miterlimit="10"/>
<path d="M361.304 198.583L367.702 184.462" stroke="white" stroke-width="0.341508" stroke-miterlimit="10"/>
<path d="M356.626 201.524L370.069 205.697" stroke="white" stroke-width="0.341508" stroke-miterlimit="10"/>
<path d="M350.178 205.274L352.754 191.6" stroke="white" stroke-width="0.341508" stroke-miterlimit="10"/>
<path d="M344.668 208.592L354.375 212.245" stroke="white" stroke-width="0.341508" stroke-miterlimit="10"/>
<path d="M320.828 175.766C328.062 190.081 322.569 207.415 322.569 207.415C322.569 207.415 305.371 201.531 298.152 187.208C290.933 172.885 296.4 155.594 296.4 155.594C296.4 155.594 313.609 161.443 320.828 175.766Z" fill="#FFD300"/>
<path d="M322.569 207.415L296.41 155.559" stroke="white" stroke-width="0.341508" stroke-miterlimit="10"/>
<path d="M305.707 173.984L309.261 165.239" stroke="white" stroke-width="0.341508" stroke-miterlimit="10"/>
<path d="M309.935 182.607L296.326 175.185" stroke="white" stroke-width="0.341508" stroke-miterlimit="10"/>
<path d="M312.53 187.496L317.677 174.397" stroke="white" stroke-width="0.341508" stroke-miterlimit="10"/>
<path d="M315.778 194.207L302.334 190.607" stroke="white" stroke-width="0.341508" stroke-miterlimit="10"/>
<path d="M318.677 199.955L323.039 190.546" stroke="white" stroke-width="0.341508" stroke-miterlimit="10"/>
<path opacity="0.1" d="M213.833 391C294.289 391 359.512 384.785 359.512 377.118C359.512 369.451 294.289 363.236 213.833 363.236C133.377 363.236 68.1538 369.451 68.1538 377.118C68.1538 384.785 133.377 391 213.833 391Z" fill="#00BF63"/>
<rect x="76.9893" y="34.8372" width="263.332" height="225.771" rx="10.7299" fill="white"/>
<rect x="89.0479" y="64.9177" width="111.302" height="111.302" rx="10.4289" fill="#EFF0F7"/>
<path d="M76.9893 45.2661C76.9893 39.5063 81.6585 34.8372 87.4182 34.8372H329.892C335.652 34.8372 340.321 39.5063 340.321 45.2661V55.9531H76.9893V45.2661Z" fill="#00BF63"/>
<ellipse cx="89.0629" cy="44.1127" rx="3.25718" ry="3.25718" fill="white"/>
<ellipse cx="98.8343" cy="44.1127" rx="3.25718" ry="3.25718" fill="white"/>
<ellipse cx="108.606" cy="44.1127" rx="3.25718" ry="3.25718" fill="white"/>
<rect x="95.7183" y="71.572" width="97.9609" height="97.9769" rx="10.7299" fill="white"/>
<rect opacity="0.2" x="105.005" y="84.4468" width="24.2908" height="4.36976" rx="2.18488" fill="#00BF63"/>
<line x1="106.383" y1="108.063" x2="179.109" y2="108.063" stroke="#EFF0F7" stroke-width="0.442638"/>
<line x1="106.383" y1="118.963" x2="179.109" y2="118.963" stroke="#EFF0F7" stroke-width="0.442638"/>
<line x1="106.383" y1="129.862" x2="179.109" y2="129.862" stroke="#EFF0F7" stroke-width="0.442638"/>
<line x1="106.383" y1="140.761" x2="179.109" y2="140.761" stroke="#EFF0F7" stroke-width="0.442638"/>
<line x1="106.383" y1="152.588" x2="179.109" y2="152.588" stroke="#EFF0F7" stroke-width="0.442638"/>
<circle opacity="0.2" cx="223.621" cy="76.5876" r="11.594" fill="#00BF63"/>
<rect opacity="0.3" x="276.591" y="65.9211" width="4.63758" height="37.6647" rx="2.31879" transform="rotate(90 276.591 65.9211)" fill="#7A6EFF"/>
<rect x="328.263" y="74.2688" width="4.63758" height="89.337" rx="2.31879" transform="rotate(90 328.263 74.2688)" fill="#EFF0F7"/>
<rect x="328.263" y="82.6162" width="4.63758" height="89.337" rx="2.31879" transform="rotate(90 328.263 82.6162)" fill="#EFF0F7"/>
<circle opacity="0.2" cx="223.623" cy="114.616" r="11.594" fill="#00BF63"/>
<rect opacity="0.3" x="276.591" y="103.949" width="4.63758" height="37.6647" rx="2.31879" transform="rotate(90 276.591 103.949)" fill="#7A6EFF"/>
<rect x="328.263" y="112.297" width="4.63758" height="89.337" rx="2.31879" transform="rotate(90 328.263 112.297)" fill="#EFF0F7"/>
<rect x="328.263" y="120.645" width="4.63758" height="89.337" rx="2.31879" transform="rotate(90 328.263 120.645)" fill="#EFF0F7"/>
<circle opacity="0.2" cx="223.623" cy="152.644" r="11.594" fill="#00BF63"/>
<rect opacity="0.3" x="276.591" y="141.978" width="4.63758" height="37.6647" rx="2.31879" transform="rotate(90 276.591 141.978)" fill="#7A6EFF"/>
<rect x="328.263" y="150.325" width="4.63758" height="89.337" rx="2.31879" transform="rotate(90 328.263 150.325)" fill="#EFF0F7"/>
<rect x="328.263" y="158.673" width="4.63758" height="89.337" rx="2.31879" transform="rotate(90 328.263 158.673)" fill="#EFF0F7"/>
<rect x="89.0479" y="188.277" width="239.217" height="60.273" rx="7.89208" fill="#EFF0F7"/>
<rect x="95.9961" y="195.221" width="225.32" height="46.3854" rx="8.10325" fill="white"/>
<path d="M175.746 232.382L175.894 232.716L176.246 232.618L193.086 227.931L193.131 227.918L193.172 227.896L209.871 218.969L226.613 223.367L226.771 223.408L226.916 223.332L243.937 214.433L260.426 214.398L276.612 223.46L276.614 223.461L276.771 223.55L276.971 223.664L277.175 223.557L293.199 215.167L293.661 214.925L293.328 214.523L293.017 214.146L292.798 213.882L292.495 214.041L276.997 222.153L260.998 213.197L260.998 213.197L260.995 213.195L260.921 213.155L260.826 213.102L260.717 213.103L243.661 213.139L243.558 213.139L243.466 213.187L226.585 222.013L209.841 217.61L209.68 217.568L209.534 217.646L192.588 226.715L175.832 231.381L175.361 231.512L175.559 231.959L175.746 232.382Z" fill="#962DFF" stroke="#962DFF" stroke-width="0.84558"/>
<path d="M276.461 227.778C276.648 227.879 276.881 227.825 277.005 227.653L293.465 204.726C293.539 204.623 293.563 204.491 293.53 204.369C293.496 204.246 293.41 204.145 293.294 204.093L292.8 203.873C292.617 203.791 292.402 203.849 292.285 204.012L276.348 226.211L260.493 217.674C260.431 217.64 260.362 217.623 260.292 217.623H243.347L226.383 208.747C226.324 208.715 226.258 208.699 226.19 208.698L209.243 208.577C209.146 208.576 209.051 208.609 208.975 208.67L192.189 222.139H175.827C175.593 222.139 175.404 222.328 175.404 222.562V223.011C175.404 223.245 175.593 223.434 175.827 223.434H192.576C192.672 223.434 192.765 223.401 192.84 223.341L209.62 209.878L225.906 209.993L242.877 218.87C242.937 218.901 243.004 218.918 243.073 218.918H260.016L276.461 227.778Z" fill="#00BF63" stroke="#00BF63" stroke-width="0.84558" stroke-linejoin="round"/>
<rect opacity="0.2" x="108.499" y="205.077" width="24.2908" height="4.36976" rx="2.18488" fill="#00BF63"/>
<rect x="108.499" y="215.012" width="6.51414" height="6.51414" rx="3.25707" fill="#00BF63"/>
<rect x="156.984" y="215.95" width="4.63758" height="39.3448" rx="2.31879" transform="rotate(90 156.984 215.95)" fill="#EFF0F7"/>
<rect x="108.499" y="225.236" width="6.51414" height="6.51414" rx="3.25707" fill="#962DFF"/>
<rect x="156.984" y="226.174" width="4.63758" height="39.3448" rx="2.31879" transform="rotate(90 156.984 226.174)" fill="#EFF0F7"/>
<path d="M330.196 372.776C331.562 370.994 333.486 368.406 335.632 365.22C336.269 364.297 336.932 363.308 337.57 362.294C335.853 361.08 334.328 359.616 333.044 357.951C332.551 357.177 332.23 356.306 332.104 355.397C331.979 354.488 332.051 353.562 332.316 352.684C332.616 351.949 333.195 351.363 333.926 351.053C334.657 350.744 335.481 350.736 336.217 351.032L336.503 351.162C338.714 352.463 339.104 357.014 338.649 359.251C338.649 359.394 338.077 361.046 337.778 361.852L338.961 359.979C339.546 359.043 340.132 358.042 340.704 357.079L341.536 355.532C341.835 355.012 342.056 354.478 342.316 353.932C342.694 353.152 343.032 352.307 343.383 351.487C341.599 350.588 339.964 349.421 338.532 348.028C337.924 347.337 337.474 346.522 337.211 345.639C336.948 344.757 336.88 343.829 337.011 342.917C337.204 342.135 337.701 341.461 338.391 341.044C339.081 340.627 339.908 340.501 340.691 340.694L340.912 340.759C343.305 341.682 344.397 346.155 344.267 348.444C344.267 348.444 344.189 348.99 344.098 349.563C344.41 348.743 344.722 347.924 345.008 347.079C345.828 344.686 346.582 342.215 347.362 339.744C347.518 339.237 347.687 338.73 347.843 338.21C346.013 337.284 344.33 336.092 342.85 334.672C342.242 333.983 341.792 333.171 341.529 332.291C341.266 331.41 341.198 330.484 341.328 329.575C341.421 329.188 341.589 328.824 341.824 328.503C342.058 328.181 342.353 327.91 342.693 327.703C343.033 327.496 343.41 327.359 343.802 327.298C344.195 327.238 344.596 327.256 344.982 327.351L345.229 327.416C347.622 328.326 348.715 332.813 348.585 335.089C348.585 335.167 348.494 335.739 348.377 336.389C348.819 335.089 349.274 333.788 349.768 332.488C350.597 330.257 351.574 328.085 352.694 325.985C350.785 325.048 349.031 323.824 347.492 322.357C346.885 321.668 346.434 320.855 346.171 319.975C345.909 319.095 345.84 318.168 345.971 317.259C346.064 316.873 346.232 316.508 346.466 316.187C346.701 315.866 346.996 315.594 347.336 315.388C347.675 315.181 348.052 315.044 348.445 314.983C348.838 314.923 349.239 314.94 349.625 315.035H349.872C352.265 315.959 353.357 320.432 353.227 322.708C353.227 322.877 352.876 324.932 352.72 325.673V325.595C353.867 323.553 355.199 321.62 356.699 319.821C358.02 318.2 359.436 316.658 360.939 315.205C362.33 313.904 363.67 312.682 364.84 311.667C365.491 311.121 366.102 310.627 366.674 310.185C366.674 310.185 368.078 307.428 368.196 307.272C369.496 305.386 373.098 302.525 375.543 303.253C375.928 303.379 376.284 303.581 376.59 303.846C376.897 304.112 377.147 304.436 377.326 304.799C377.505 305.163 377.61 305.558 377.634 305.963C377.659 306.367 377.602 306.772 377.468 307.155L377.351 307.441C376.9 308.242 376.281 308.934 375.535 309.471C374.789 310.008 373.936 310.376 373.033 310.549C370.982 310.775 368.907 310.687 366.882 310.289C366.284 310.757 365.673 311.277 364.996 311.862C363.813 312.903 362.5 314.099 361.095 315.478C360.731 315.855 360.354 316.258 359.99 316.661C360.604 316.194 361.242 315.76 361.901 315.361C363.917 314.294 368.404 313.41 370.276 315.192C370.558 315.471 370.781 315.803 370.934 316.169C371.086 316.535 371.165 316.928 371.165 317.324C371.165 317.721 371.086 318.113 370.934 318.479C370.781 318.846 370.558 319.178 370.276 319.457C370.2 319.537 370.117 319.611 370.029 319.678C369.26 320.181 368.39 320.509 367.48 320.642C366.571 320.774 365.643 320.707 364.762 320.445C362.829 319.692 361.023 318.648 359.404 317.35C358.598 318.235 357.805 319.158 357.025 320.172C355.581 321.981 354.305 323.918 353.214 325.959C353.185 326.092 353.128 326.216 353.045 326.323C353.37 325.998 355.308 324.334 355.451 324.23C357.337 322.929 361.745 321.564 363.761 323.137C364.379 323.643 364.771 324.374 364.852 325.168C364.932 325.963 364.694 326.757 364.19 327.377L363.956 327.637C363.236 328.22 362.398 328.639 361.499 328.863C360.601 329.088 359.664 329.113 358.754 328.937C356.694 328.388 354.735 327.51 352.954 326.336C351.925 328.396 351.03 330.52 350.275 332.696C349.703 334.308 349.196 335.96 348.689 337.624C349.131 337.208 350.925 335.661 351.068 335.57C352.954 334.269 357.35 332.904 359.378 334.464C359.996 334.977 360.387 335.712 360.465 336.511C360.543 337.31 360.302 338.108 359.795 338.73L359.573 338.964C358.855 339.549 358.017 339.97 357.118 340.194C356.219 340.419 355.281 340.443 354.372 340.264C352.329 339.717 350.382 338.862 348.598 337.728L347.934 339.991C347.219 342.475 346.504 344.959 345.737 347.391C345.463 348.236 345.164 349.055 344.878 349.888C345.555 349.276 346.803 348.21 346.92 348.119C348.806 346.819 353.201 345.518 355.23 347.027C355.849 347.545 356.237 348.288 356.31 349.092C356.383 349.896 356.135 350.696 355.62 351.318L355.425 351.526C354.707 352.112 353.868 352.532 352.969 352.757C352.07 352.982 351.133 353.005 350.223 352.827C348.25 352.307 346.368 351.486 344.644 350.395C344.15 351.695 343.63 353.113 343.058 354.413C342.798 354.96 342.563 355.545 342.277 356.065L341.471 357.638C340.886 358.692 340.34 359.667 339.767 360.63C339.481 361.124 339.195 361.579 338.922 362.06C339.507 361.345 340.47 360.226 340.561 360.135C342.238 358.575 346.374 356.546 348.611 357.795C348.951 357.997 349.249 358.264 349.486 358.582C349.724 358.899 349.896 359.26 349.994 359.644C350.092 360.028 350.113 360.428 350.056 360.82C350 361.212 349.866 361.589 349.664 361.93C349.664 362.021 349.547 362.112 349.482 362.203C348.87 362.889 348.115 363.434 347.27 363.798C346.426 364.162 345.512 364.336 344.592 364.31C342.503 364.071 340.46 363.523 338.532 362.684C337.83 363.842 337.141 364.96 336.477 365.987C334.358 369.265 332.485 371.904 331.145 373.79C329.806 375.676 328.987 376.651 328.987 376.651C328.918 376.754 328.827 376.842 328.722 376.907C328.616 376.973 328.498 377.015 328.375 377.031C328.252 377.047 328.127 377.036 328.008 377C327.889 376.964 327.779 376.902 327.686 376.82C327.589 376.746 327.507 376.654 327.446 376.548C327.386 376.442 327.347 376.324 327.332 376.203C327.318 376.082 327.328 375.959 327.362 375.841C327.396 375.724 327.453 375.615 327.53 375.52C328.546 374.737 329.443 373.813 330.196 372.776Z" fill="#FFD300"/>
<path d="M359.677 316.778C359.677 316.778 356.374 313.722 355.606 311.875C355.205 311.049 354.988 310.146 354.967 309.228C354.947 308.311 355.125 307.399 355.489 306.556C355.874 305.851 356.523 305.328 357.294 305.101C358.064 304.874 358.893 304.963 359.599 305.347L359.872 305.516C361.939 307.024 361.809 311.641 361.081 313.8C361.016 313.995 359.703 316.804 359.677 316.778Z" fill="#FFD300"/>
<path d="M326.633 373.998C326.021 372.464 325.124 370.279 323.928 367.717C323.59 366.976 323.212 366.195 322.822 365.389C321.41 366.017 319.91 366.424 318.375 366.599C317.699 366.618 317.027 366.491 316.405 366.226C315.784 365.961 315.227 365.565 314.772 365.064C314.418 364.592 314.264 364 314.344 363.415C314.425 362.83 314.733 362.301 315.202 361.943L315.41 361.813C317.048 360.903 320.091 362.385 321.327 363.516C321.405 363.594 322.237 364.557 322.627 365.064C322.38 364.583 322.146 364.102 321.886 363.607C321.522 362.892 321.119 362.151 320.716 361.423C320.507 361.046 320.286 360.681 320.065 360.304C319.844 359.927 319.597 359.576 319.35 359.212C319.103 358.848 318.596 358.146 318.206 357.612C316.966 358.393 315.616 358.98 314.2 359.355C313.534 359.478 312.85 359.455 312.194 359.286C311.538 359.118 310.927 358.809 310.403 358.38C310.196 358.173 310.032 357.928 309.92 357.658C309.808 357.388 309.75 357.098 309.75 356.806C309.75 356.514 309.808 356.224 309.92 355.954C310.032 355.684 310.196 355.439 310.403 355.233L310.52 355.063C312.002 353.906 315.241 354.907 316.619 355.857L317.256 356.39C316.866 355.887 316.463 355.38 316.047 354.868C314.837 353.451 313.576 352.033 312.315 350.616L311.534 349.732C310.259 350.539 308.869 351.148 307.412 351.539C306.748 351.662 306.065 351.639 305.412 351.47C304.758 351.302 304.149 350.993 303.628 350.564C303.421 350.357 303.257 350.112 303.145 349.842C303.033 349.572 302.975 349.283 302.975 348.99C302.975 348.698 303.033 348.409 303.145 348.139C303.257 347.869 303.421 347.623 303.628 347.417L303.797 347.261C305.279 346.103 308.517 347.105 309.909 348.041L310.637 348.665C309.961 347.885 309.337 347.105 308.673 346.298C307.57 344.933 306.566 343.49 305.669 341.981C304.358 342.829 302.923 343.469 301.417 343.88C300.753 344.003 300.07 343.979 299.417 343.811C298.763 343.642 298.154 343.333 297.632 342.904C297.218 342.485 296.985 341.92 296.985 341.331C296.985 340.741 297.218 340.176 297.632 339.757L297.801 339.601C299.271 338.444 302.509 339.445 303.901 340.381C304.005 340.459 305.201 341.461 305.578 341.825C304.731 340.33 304.017 338.763 303.445 337.143C302.928 335.695 302.493 334.219 302.145 332.722C301.807 331.33 301.586 330.043 301.404 328.898C301.3 328.274 301.235 327.715 301.157 327.182C301.157 327.182 299.96 325.257 299.856 325.127C299.154 323.592 298.712 320.237 300.103 318.976C300.546 318.592 301.122 318.399 301.707 318.438C302.291 318.477 302.836 318.745 303.224 319.184L303.38 319.392C303.715 319.98 303.917 320.633 303.973 321.307C304.029 321.98 303.938 322.658 303.706 323.293C303.074 324.672 302.231 325.945 301.209 327.065C301.287 327.624 301.378 328.209 301.495 328.846C301.703 329.991 301.95 331.265 302.327 332.644C302.418 333.008 302.535 333.398 302.639 333.775C302.639 333.099 302.535 332.162 302.548 332.071C302.639 330.407 303.849 327.221 305.604 326.739C306.173 326.602 306.773 326.696 307.273 327.001C307.773 327.306 308.132 327.796 308.27 328.365C308.276 328.452 308.276 328.539 308.27 328.625C308.295 329.3 308.171 329.973 307.908 330.595C307.646 331.217 307.25 331.774 306.749 332.227C305.569 333.16 304.253 333.906 302.847 334.438C303.094 335.271 303.38 336.129 303.719 337.039C304.315 338.633 305.055 340.17 305.929 341.63L306.098 341.877C306.007 341.552 305.695 339.705 305.682 339.562C305.591 337.897 306.385 334.594 308.14 333.918C308.687 333.716 309.291 333.74 309.82 333.984C310.35 334.228 310.76 334.672 310.962 335.218C310.996 335.298 311.022 335.381 311.04 335.466C311.143 336.133 311.098 336.814 310.907 337.462C310.716 338.11 310.384 338.707 309.935 339.211C308.808 340.286 307.528 341.189 306.137 341.89C307.043 343.324 308.042 344.697 309.128 345.999C309.922 346.962 310.78 347.911 311.638 348.86C311.534 348.418 311.235 346.702 311.235 346.571C311.131 344.907 311.937 341.604 313.693 340.927C314.24 340.726 314.844 340.75 315.373 340.993C315.902 341.237 316.313 341.681 316.515 342.228C316.549 342.308 316.575 342.39 316.593 342.475C316.696 343.142 316.651 343.824 316.46 344.471C316.269 345.119 315.937 345.716 315.488 346.22C314.368 347.298 313.092 348.201 311.703 348.899L312.887 350.2C314.187 351.591 315.488 352.983 316.71 354.387C317.139 354.881 317.542 355.376 318.011 355.87C317.881 355.22 317.685 354.023 317.672 353.919C317.581 352.241 318.375 348.951 320.13 348.275C320.677 348.073 321.281 348.097 321.811 348.341C322.34 348.585 322.75 349.029 322.952 349.576C322.988 349.654 323.014 349.737 323.03 349.823C323.134 350.49 323.088 351.172 322.897 351.819C322.706 352.467 322.374 353.064 321.925 353.568C320.854 354.619 319.625 355.497 318.284 356.169C318.96 357.001 319.584 357.833 320.208 358.692C320.455 359.069 320.742 359.433 320.963 359.81C321.184 360.187 321.418 360.551 321.639 360.916C322.081 361.683 322.497 362.398 322.939 363.113C323.134 363.49 323.316 363.842 323.512 364.193C323.29 363.555 322.939 362.528 322.926 362.424C322.575 360.785 322.861 357.417 324.5 356.481C324.77 356.365 325.059 356.304 325.353 356.301C325.646 356.298 325.937 356.354 326.209 356.464C326.481 356.574 326.729 356.736 326.938 356.942C327.146 357.148 327.312 357.394 327.426 357.664C327.631 358.314 327.69 359 327.597 359.675C327.505 360.35 327.265 360.995 326.893 361.566C325.954 362.788 324.841 363.866 323.59 364.765C324.045 365.636 324.487 366.494 324.89 367.366C326.19 369.967 327.114 372.112 327.764 373.66C328.414 375.208 328.739 376.105 328.739 376.105C328.794 376.271 328.783 376.451 328.708 376.609C328.633 376.766 328.5 376.889 328.336 376.95C328.253 376.979 328.166 376.991 328.078 376.985C327.991 376.98 327.905 376.957 327.827 376.918C327.748 376.88 327.678 376.826 327.62 376.76C327.563 376.694 327.519 376.617 327.491 376.534C327.255 375.673 326.969 374.826 326.633 373.998Z" fill="#FFD300"/>
<path d="M302.509 334.256C301.009 334.717 299.449 334.954 297.88 334.958C297.208 334.898 296.557 334.694 295.971 334.359C295.386 334.025 294.879 333.568 294.486 333.021C294.186 332.513 294.1 331.908 294.246 331.338C294.393 330.767 294.759 330.278 295.266 329.978L295.487 329.86C297.23 329.132 300.078 330.966 301.17 332.24C301.261 332.331 302.535 334.256 302.509 334.256Z" fill="#FFD300"/>
<path d="M328.454 372.191C328.74 369.967 329.104 366.768 329.351 362.918C329.429 361.813 329.494 360.643 329.546 359.433C327.456 359.242 325.405 358.742 323.46 357.951C322.641 357.535 321.923 356.944 321.357 356.221C320.79 355.497 320.39 354.658 320.183 353.763C320.128 353.367 320.152 352.964 320.253 352.577C320.354 352.19 320.53 351.826 320.772 351.507C321.013 351.188 321.315 350.92 321.661 350.718C322.006 350.516 322.388 350.384 322.784 350.33H323.109C325.71 350.33 328.311 354.075 329.039 356.247C329.039 356.377 329.442 358.081 329.611 358.952C329.599 358.214 329.625 357.476 329.689 356.741V351.539C329.689 350.941 329.598 350.369 329.559 349.771C329.481 348.9 329.364 348.015 329.247 347.17C327.254 347.288 325.255 347.104 323.317 346.624C322.441 346.333 321.639 345.855 320.966 345.225C320.292 344.594 319.763 343.824 319.416 342.969C319.294 342.59 319.249 342.191 319.282 341.794C319.315 341.398 319.426 341.011 319.608 340.657C319.79 340.304 320.041 339.989 320.345 339.732C320.649 339.475 321 339.28 321.379 339.159L321.757 339.068C324.279 338.665 327.479 341.981 328.506 344.01C328.506 344.088 328.714 344.53 328.922 345.076C328.779 344.205 328.636 343.334 328.467 342.475C327.96 339.991 327.388 337.482 326.802 334.959C326.685 334.438 326.581 333.918 326.464 333.385C324.415 333.517 322.358 333.332 320.365 332.839C319.489 332.552 318.686 332.078 318.012 331.449C317.338 330.82 316.81 330.052 316.464 329.198C316.342 328.818 316.297 328.419 316.33 328.022C316.363 327.626 316.474 327.239 316.656 326.886C316.838 326.532 317.089 326.217 317.393 325.96C317.697 325.703 318.048 325.508 318.427 325.387L318.805 325.296C321.327 324.893 324.527 328.209 325.554 330.238C325.554 330.316 325.801 330.849 326.035 331.46C325.736 330.082 325.463 328.716 325.229 327.338C324.826 324.99 324.579 322.618 324.488 320.237C322.379 320.366 320.263 320.187 318.206 319.704C317.329 319.416 316.526 318.939 315.852 318.308C315.178 317.677 314.65 316.906 314.305 316.05C314.184 315.671 314.138 315.272 314.171 314.875C314.204 314.478 314.315 314.092 314.497 313.738C314.68 313.384 314.93 313.07 315.234 312.813C315.538 312.555 315.889 312.361 316.269 312.24L316.633 312.149C319.156 311.745 322.355 315.062 323.395 317.09C323.395 317.246 324.201 319.197 324.436 319.912C324.401 317.569 324.575 315.228 324.956 312.916C325.272 310.851 325.706 308.806 326.256 306.791C326.776 304.918 327.349 303.227 327.882 301.745C328.168 300.952 328.454 300.223 328.714 299.547C328.714 299.547 328.558 296.465 328.571 296.27C328.74 293.994 330.418 289.69 332.902 289.091C333.293 289.01 333.696 289.006 334.089 289.081C334.481 289.156 334.855 289.308 335.189 289.528C335.522 289.748 335.809 290.032 336.032 290.363C336.256 290.694 336.412 291.067 336.491 291.458C336.497 291.558 336.497 291.658 336.491 291.757C336.498 292.676 336.307 293.585 335.93 294.422C335.553 295.26 334.999 296.005 334.306 296.608C332.647 297.838 330.809 298.808 328.857 299.482C328.597 300.184 328.324 300.939 328.038 301.797C327.544 303.28 326.997 304.97 326.529 306.843C326.412 307.35 326.295 307.896 326.178 308.416C326.555 307.571 327.101 306.427 327.166 306.323C328.376 304.385 331.835 301.342 334.319 301.953C335.089 302.166 335.744 302.675 336.139 303.37C336.534 304.065 336.637 304.889 336.426 305.659C336.399 305.77 336.364 305.879 336.322 305.984C335.909 306.808 335.322 307.531 334.601 308.104C333.88 308.677 333.043 309.085 332.147 309.301C330.096 309.613 328.009 309.613 325.957 309.301C325.71 310.471 325.489 311.667 325.32 312.929C324.993 315.22 324.866 317.535 324.943 319.847V320.25C325.06 319.808 325.892 317.389 325.97 317.233C326.958 315.166 330.066 311.771 332.602 312.11C332.995 312.174 333.372 312.316 333.71 312.526C334.048 312.736 334.341 313.011 334.573 313.335C334.805 313.658 334.971 314.025 335.061 314.412C335.151 314.8 335.164 315.202 335.099 315.595C335.105 315.694 335.105 315.794 335.099 315.894C334.776 316.754 334.27 317.534 333.617 318.181C332.964 318.827 332.179 319.325 331.315 319.639C329.266 320.197 327.142 320.433 325.021 320.341C325.166 322.647 325.461 324.941 325.905 327.208C326.217 328.872 326.607 330.563 327.023 332.254C327.192 331.668 327.96 329.432 328.038 329.276C329.013 327.208 332.121 323.814 334.657 324.152C335.049 324.214 335.426 324.352 335.764 324.559C336.103 324.767 336.397 325.039 336.63 325.36C336.863 325.682 337.031 326.046 337.123 326.432C337.215 326.818 337.23 327.219 337.167 327.611L337.089 327.936C336.774 328.799 336.273 329.582 335.621 330.229C334.969 330.877 334.183 331.372 333.318 331.681C331.275 332.23 329.163 332.471 327.049 332.397L327.622 334.686C328.246 337.195 328.922 339.705 329.442 342.189C329.637 343.06 329.793 343.919 329.949 344.79C330.236 343.919 330.769 342.371 330.834 342.189C331.809 340.121 334.93 336.727 337.453 337.065C337.845 337.127 338.222 337.266 338.56 337.473C338.899 337.68 339.193 337.953 339.426 338.274C339.659 338.595 339.827 338.96 339.919 339.346C340.011 339.732 340.026 340.133 339.963 340.525L339.885 340.85C339.57 341.713 339.069 342.496 338.417 343.143C337.765 343.79 336.979 344.286 336.114 344.595C334.146 345.138 332.107 345.379 330.066 345.31C330.327 346.741 330.548 348.158 330.704 349.576C330.704 350.187 330.86 350.811 330.873 351.396C330.886 351.982 330.873 352.58 330.964 353.165V358.263C331.12 357.353 331.38 355.909 331.419 355.779C332.082 353.594 334.631 349.758 337.193 349.706C337.992 349.713 338.756 350.035 339.319 350.602C339.881 351.17 340.197 351.937 340.197 352.736C340.204 352.853 340.204 352.97 340.197 353.087C340.011 353.986 339.631 354.834 339.083 355.571C338.535 356.308 337.832 356.916 337.024 357.353C335.105 358.212 333.066 358.769 330.977 359.004C330.977 360.305 330.977 361.67 330.86 362.905C330.678 366.807 330.392 370.032 330.145 372.282C329.897 374.532 329.715 375.845 329.715 375.845C329.699 375.962 329.66 376.075 329.601 376.177C329.541 376.279 329.462 376.368 329.368 376.439C329.273 376.511 329.166 376.563 329.052 376.592C328.937 376.622 328.818 376.629 328.701 376.612C328.466 376.577 328.254 376.451 328.111 376.261C327.967 376.072 327.904 375.834 327.934 375.598C328.171 374.473 328.345 373.335 328.454 372.191Z" fill="#FFD300"/>
<path d="M325.761 308.962C325.761 308.962 321.366 307.987 319.779 306.778C319.014 306.269 318.37 305.599 317.891 304.815C317.413 304.031 317.112 303.152 317.009 302.239C316.992 301.436 317.292 300.659 317.845 300.077C318.398 299.495 319.158 299.155 319.961 299.131H320.273C322.809 299.404 325.02 303.448 325.475 305.633C325.527 305.88 325.8 308.975 325.761 308.962Z" fill="#FFD300"/>
<path opacity="0.3" d="M224.263 166.817C225.041 168.961 226.474 170.805 228.358 172.089C230.242 173.374 232.482 174.034 234.762 173.975C235.939 173.946 237.104 173.723 238.209 173.315C240.232 172.578 241.992 171.257 243.264 169.52C244.537 167.783 245.266 165.707 245.359 163.556C245.453 161.404 244.906 159.273 243.788 157.432C242.67 155.592 241.032 154.124 239.08 153.214C237.128 152.305 234.95 151.994 232.821 152.323C230.693 152.651 228.71 153.603 227.122 155.058C225.535 156.513 224.415 158.407 223.903 160.499C223.392 162.591 223.512 164.787 224.249 166.811L224.263 166.817Z" fill="#FAFAFA"/>
<path opacity="0.4" d="M225.946 156.318L245.162 165.272C245.195 165.107 245.228 164.949 245.254 164.784C245.424 163.726 245.435 162.649 245.287 161.587L228.693 153.855C227.643 154.512 226.713 155.345 225.946 156.318Z" fill="#FAFAFA"/>
<path opacity="0.4" d="M218.456 159.656L242.607 170.902C244.286 169.437 245.604 167.603 246.456 165.544L220.089 153.256C219.061 155.236 218.502 157.426 218.456 159.656Z" fill="#FAFAFA"/>
<path d="M230.198 151.287C232.53 150.442 235.059 150.307 237.468 150.898C239.876 151.49 242.054 152.783 243.729 154.612C245.403 156.441 246.497 158.726 246.874 161.177C247.251 163.628 246.892 166.136 245.845 168.383C244.797 170.631 243.106 172.518 240.987 173.805C238.868 175.093 236.414 175.723 233.937 175.617C231.459 175.511 229.068 174.673 227.067 173.209C225.065 171.745 223.542 169.721 222.69 167.392C222.123 165.842 221.868 164.195 221.938 162.546C222.009 160.896 222.404 159.277 223.102 157.781C223.799 156.285 224.785 154.941 226.003 153.827C227.221 152.712 228.646 151.849 230.198 151.287ZM237.885 172.417C239.724 171.747 241.324 170.547 242.482 168.969C243.641 167.39 244.305 165.504 244.391 163.548C244.478 161.591 243.983 159.654 242.968 157.979C241.954 156.304 240.466 154.968 238.693 154.138C236.919 153.308 234.94 153.023 233.004 153.318C231.069 153.613 229.264 154.475 227.818 155.795C226.372 157.115 225.349 158.834 224.88 160.735C224.41 162.635 224.515 164.633 225.18 166.474C225.624 167.699 226.305 168.823 227.184 169.784C228.063 170.745 229.122 171.523 230.303 172.074C231.483 172.625 232.76 172.937 234.061 172.994C235.362 173.051 236.661 172.85 237.885 172.404V172.417Z" fill="#00BF63"/>
<path opacity="0.3" d="M230.198 151.287C232.53 150.442 235.059 150.307 237.468 150.898C239.876 151.49 242.054 152.783 243.729 154.612C245.403 156.441 246.497 158.726 246.874 161.177C247.251 163.628 246.892 166.136 245.845 168.383C244.797 170.631 243.106 172.518 240.987 173.805C238.868 175.093 236.414 175.723 233.937 175.617C231.459 175.511 229.068 174.673 227.067 173.209C225.065 171.745 223.542 169.721 222.69 167.392C222.123 165.842 221.868 164.195 221.938 162.546C222.009 160.896 222.404 159.277 223.102 157.781C223.799 156.285 224.785 154.941 226.003 153.827C227.221 152.712 228.646 151.849 230.198 151.287ZM237.885 172.417C239.724 171.747 241.324 170.547 242.482 168.969C243.641 167.39 244.305 165.504 244.391 163.548C244.478 161.591 243.983 159.654 242.968 157.979C241.954 156.304 240.466 154.968 238.693 154.138C236.919 153.308 234.94 153.023 233.004 153.318C231.069 153.613 229.264 154.475 227.818 155.795C226.372 157.115 225.349 158.834 224.88 160.735C224.41 162.635 224.515 164.633 225.18 166.474C225.624 167.699 226.305 168.823 227.184 169.784C228.063 170.745 229.122 171.523 230.303 172.074C231.483 172.625 232.76 172.937 234.061 172.994C235.362 173.051 236.661 172.85 237.885 172.404V172.417Z" fill="#170F49"/>
<path d="M236.507 174.415C237.346 178.467 238.511 182.413 239.721 186.332C240.365 188.283 240.965 190.243 241.663 192.167L242.687 195.071C242.847 195.625 243.133 196.134 243.522 196.56C243.911 196.985 244.392 197.315 244.929 197.525C245.5 197.769 246.143 197.786 246.727 197.573C247.311 197.36 247.791 196.933 248.071 196.378C248.348 195.873 248.505 195.31 248.529 194.735C248.554 194.159 248.445 193.586 248.213 193.059L247.127 190.181C246.421 188.257 245.617 186.368 244.858 184.461C243.269 180.674 241.618 176.913 239.65 173.268C239.462 172.903 239.147 172.619 238.765 172.469C238.382 172.32 237.958 172.315 237.573 172.456C237.187 172.597 236.866 172.874 236.67 173.234C236.474 173.595 236.416 174.015 236.507 174.415Z" fill="#00BF63"/>
<path opacity="0.3" d="M236.507 174.415C237.346 178.467 238.511 182.413 239.721 186.332C240.365 188.283 240.965 190.243 241.663 192.167L242.687 195.071C242.847 195.625 243.133 196.134 243.522 196.56C243.911 196.985 244.392 197.315 244.929 197.525C245.5 197.769 246.143 197.786 246.727 197.573C247.311 197.36 247.791 196.933 248.071 196.378C248.348 195.873 248.505 195.31 248.529 194.735C248.554 194.159 248.445 193.586 248.213 193.059L247.127 190.181C246.421 188.257 245.617 186.368 244.858 184.461C243.269 180.674 241.618 176.913 239.65 173.268C239.462 172.903 239.147 172.619 238.765 172.469C238.382 172.32 237.958 172.315 237.573 172.456C237.187 172.597 236.866 172.874 236.67 173.234C236.474 173.595 236.416 174.015 236.507 174.415Z" fill="#170F49"/>
<path d="M301.751 170.558C301.909 170.778 302.165 171.167 302.368 171.485L303.03 172.517C303.463 173.215 303.913 173.93 304.266 174.662C305.06 176.094 305.776 177.567 306.411 179.076C307.661 182.004 308.436 185.112 308.706 188.283V188.875V188.998C308.706 189.078 308.548 189.334 308.097 189.59C306.825 190.198 305.451 190.569 304.046 190.684C300.653 191.015 297.239 191.044 293.841 190.772L293.073 194.436C296.711 195.615 300.497 196.277 304.319 196.404C305.349 196.413 306.378 196.357 307.4 196.237C308.562 196.1 309.7 195.803 310.781 195.354C312.199 194.791 313.425 193.832 314.312 192.591C314.792 191.871 315.136 191.069 315.327 190.225C315.473 189.538 315.541 188.836 315.53 188.133C315.541 184.101 314.792 180.103 313.323 176.349C312.646 174.515 311.844 172.731 310.922 171.008C310.463 170.125 309.969 169.313 309.457 168.483C309.201 168.068 308.936 167.654 308.654 167.247C308.371 166.841 308.115 166.462 307.771 165.968L301.751 170.558Z" fill="#FFC1B4"/>
<path d="M304.39 158.279C307.444 159.02 314.665 171.061 314.665 171.061L298.484 177.761C298.484 177.761 295.563 168.598 297.399 164.935C299.305 161.121 300.268 157.264 304.39 158.279Z" fill="#00BF63"/>
<path opacity="0.2" d="M304.39 158.279C307.444 159.02 314.665 171.061 314.665 171.061L298.484 177.761C298.484 177.761 295.563 168.598 297.399 164.935C299.305 161.121 300.268 157.264 304.39 158.279Z" fill="#FFD300"/>
<path d="M293.162 190.393L285.747 189.607L289.869 195.839C289.869 195.839 294.601 195.407 295.81 192.573L293.162 190.393Z" fill="#FFC1B4"/>
<path d="M280.458 192.909L286.152 199.097L289.913 195.839L285.746 189.607L280.458 192.909Z" fill="#FFC1B4"/>
<path d="M302.916 370.003C303.577 369.987 304.234 369.898 304.876 369.739C304.908 369.73 304.937 369.712 304.959 369.687C304.981 369.662 304.995 369.631 304.999 369.597C305.006 369.564 305.002 369.53 304.99 369.499C304.977 369.468 304.956 369.44 304.929 369.421C304.673 369.253 302.448 367.805 301.574 368.194C301.477 368.238 301.394 368.307 301.332 368.394C301.27 368.481 301.232 368.582 301.221 368.688C301.188 368.856 301.197 369.03 301.248 369.193C301.299 369.357 301.39 369.505 301.513 369.624C301.921 369.911 302.418 370.046 302.916 370.003ZM304.373 369.491C303.084 369.747 302.122 369.703 301.724 369.359C301.643 369.281 301.583 369.183 301.552 369.074C301.521 368.965 301.52 368.851 301.548 368.741C301.547 368.692 301.561 368.645 301.588 368.604C301.615 368.563 301.653 368.531 301.698 368.512C302.175 368.317 303.463 368.927 304.373 369.491Z" fill="#00BF63"/>
<path d="M304.832 369.747C304.878 369.745 304.922 369.726 304.954 369.693C304.987 369.661 305.006 369.617 305.008 369.571C305.008 369.482 305.008 367.355 304.214 366.64C304.117 366.546 303.999 366.476 303.871 366.435C303.742 366.393 303.606 366.382 303.472 366.402C303.332 366.403 303.196 366.453 303.088 366.543C302.981 366.634 302.907 366.758 302.881 366.896C302.713 367.726 304.046 369.324 304.743 369.721C304.77 369.738 304.8 369.747 304.832 369.747ZM303.596 366.746C303.739 366.747 303.875 366.804 303.975 366.905C304.435 367.59 304.67 368.402 304.646 369.226C303.949 368.67 303.119 367.461 303.225 366.967C303.225 366.878 303.287 366.781 303.516 366.755L303.596 366.746Z" fill="#00BF63"/>
<path d="M269.284 370.003C270.067 369.986 270.847 369.898 271.614 369.738C271.649 369.733 271.68 369.716 271.704 369.69C271.728 369.665 271.743 369.632 271.747 369.597C271.755 369.561 271.75 369.523 271.734 369.489C271.718 369.456 271.692 369.428 271.658 369.412C271.323 369.244 268.392 367.735 267.483 368.229C267.397 368.274 267.324 368.341 267.271 368.423C267.219 368.505 267.188 368.599 267.183 368.697C267.156 368.858 267.17 369.023 267.224 369.178C267.278 369.332 267.37 369.47 267.492 369.579C268.024 369.919 268.656 370.068 269.284 370.003ZM271.049 369.491C269.407 369.765 268.189 369.694 267.739 369.288C267.665 369.217 267.609 369.13 267.576 369.033C267.542 368.937 267.531 368.833 267.545 368.732C267.546 368.691 267.557 368.652 267.579 368.618C267.601 368.583 267.632 368.556 267.668 368.538C268.145 368.273 269.822 368.926 271.032 369.491H271.049Z" fill="#00BF63"/>
<path d="M271.579 369.747C271.61 369.759 271.645 369.759 271.676 369.747C271.701 369.729 271.722 369.706 271.736 369.678C271.75 369.65 271.756 369.619 271.755 369.588C271.755 369.509 271.588 367.514 270.661 366.746C270.529 366.63 270.375 366.543 270.207 366.49C270.04 366.437 269.864 366.419 269.69 366.437C269.204 366.49 269.063 366.737 269.036 366.94C268.895 367.823 270.608 369.359 271.508 369.765L271.579 369.747ZM269.813 366.746C270.037 366.747 270.253 366.828 270.422 366.975C270.941 367.631 271.248 368.428 271.305 369.262C270.422 368.714 269.231 367.496 269.319 366.958C269.319 366.958 269.319 366.781 269.663 366.755L269.813 366.746Z" fill="#00BF63"/>
<path d="M291.493 140.395C290.61 144.808 288.598 153.636 291.652 156.593C291.652 156.593 290.425 161.006 282.268 161.006C273.309 161.006 278.014 156.593 278.014 156.593C282.913 155.428 282.816 151.799 281.977 148.392L291.493 140.395Z" fill="#FFC1B4"/>
<path d="M279.708 369.571H272.311L271.931 352.446H279.328L279.708 369.571Z" fill="#FFC1B4"/>
<path d="M313.306 369.571H305.908L303.64 352.446H311.037L313.306 369.571Z" fill="#FFC1B4"/>
<path d="M305.458 368.715H313.764C313.907 368.711 314.045 368.761 314.153 368.854C314.26 368.947 314.33 369.076 314.347 369.218L315.23 375.794C315.244 375.961 315.224 376.129 315.171 376.287C315.117 376.446 315.031 376.592 314.918 376.715C314.805 376.839 314.668 376.938 314.515 377.006C314.362 377.073 314.197 377.109 314.029 377.109C311.134 377.056 309.739 376.889 306.085 376.889C303.842 376.889 300.559 377.118 297.451 377.118C294.344 377.118 294.203 374.046 295.501 373.773C301.3 372.528 302.227 370.807 304.187 369.165C304.545 368.87 304.994 368.711 305.458 368.715Z" fill="#170F49"/>
<path d="M272.064 368.714H280.37C280.513 368.713 280.652 368.763 280.76 368.855C280.869 368.948 280.941 369.076 280.962 369.218L281.845 375.794C281.862 375.96 281.844 376.129 281.792 376.288C281.74 376.447 281.655 376.594 281.542 376.718C281.43 376.842 281.293 376.941 281.139 377.008C280.986 377.076 280.82 377.11 280.653 377.109C277.758 377.056 276.363 376.889 272.708 376.889C270.457 376.889 265.805 377.118 262.707 377.118C259.608 377.118 259.458 374.046 260.747 373.772C266.556 372.528 268.842 370.806 270.81 369.165C271.163 368.872 271.606 368.713 272.064 368.714Z" fill="#170F49"/>
<path d="M271.932 352.455L272.126 361.273H279.523L279.329 352.455H271.932Z" fill="#FB8A72"/>
<path d="M311.037 352.455H303.64L304.814 361.273H312.211L311.037 352.455Z" fill="#FB8A72"/>
<path d="M265.505 158.491C265.505 158.491 261.974 159.735 268.745 203.113H298.758C298.334 190.896 298.369 183.357 304.372 158.279C300.172 157.411 295.915 156.847 291.634 156.593C287.094 156.275 282.536 156.275 277.996 156.593C272.152 157.131 265.505 158.491 265.505 158.491Z" fill="#00BF63"/>
<path opacity="0.2" d="M265.505 158.491C265.505 158.491 261.974 159.735 268.745 203.113H298.758C298.334 190.896 298.369 183.357 304.372 158.279C300.172 157.411 295.915 156.847 291.634 156.593C287.094 156.275 282.536 156.275 277.996 156.593C272.152 157.131 265.505 158.491 265.505 158.491Z" fill="#FFD300"/>
<path d="M263.077 166.718C262.433 170.505 261.594 174.468 260.65 178.246C260.164 180.144 259.617 182.016 259.008 183.834C258.439 185.614 257.746 187.351 256.934 189.033C256.565 189.809 256.143 190.558 255.671 191.276C255.451 191.62 255.221 191.911 254.992 192.211C254.856 192.389 254.706 192.554 254.541 192.706C254.329 192.915 254.045 193.038 253.747 193.05C253.158 193.041 252.578 192.899 252.052 192.635C250.489 191.852 249.049 190.844 247.78 189.642C247.091 189.007 246.394 188.336 245.714 187.647C245.034 186.959 244.363 186.2 243.754 185.52L240.594 187.524C241.076 188.503 241.613 189.455 242.201 190.375C242.771 191.292 243.393 192.177 244.063 193.023C245.463 194.915 247.18 196.549 249.139 197.852C250.358 198.656 251.743 199.175 253.191 199.37C254.945 199.586 256.72 199.197 258.222 198.267C258.896 197.837 259.515 197.327 260.067 196.748C260.498 196.284 260.905 195.798 261.285 195.292C261.993 194.366 262.636 193.393 263.21 192.379C265.23 188.523 266.809 184.451 267.915 180.241C268.48 178.202 269.009 176.163 269.433 174.062C269.857 171.961 270.254 169.975 270.563 167.804L263.077 166.718Z" fill="#FFC1B4"/>
<path d="M265.505 158.491C262.451 159.267 260.208 171.811 260.208 171.811L271.914 179.8C271.914 179.8 276.707 164.864 274.385 161.518C271.993 158.023 269.954 157.361 265.505 158.491Z" fill="#00BF63"/>
<path opacity="0.2" d="M265.505 158.491C262.451 159.267 260.208 171.811 260.208 171.811L271.914 179.8C271.914 179.8 276.707 164.864 274.385 161.518C271.993 158.023 269.954 157.361 265.505 158.491Z" fill="#FFD300"/>
<path d="M241.009 188.098L237.002 182.378L243.967 182.228C243.967 182.228 245.609 185.538 244.496 188.407L241.009 188.098Z" fill="#FFC1B4"/>
<path d="M236.375 179.394L236.587 178.838C236.634 178.717 236.708 178.609 236.804 178.523C236.9 178.437 237.015 178.374 237.14 178.341C237.264 178.307 237.395 178.303 237.522 178.33C237.648 178.357 237.766 178.413 237.867 178.493L239.836 180.065C240.121 180.296 240.473 180.432 240.84 180.455C241.207 180.477 241.572 180.384 241.883 180.188L242.493 179.5C242.552 179.428 242.627 179.37 242.712 179.33C242.796 179.29 242.889 179.269 242.982 179.269C243.076 179.269 243.169 179.29 243.253 179.33C243.338 179.37 243.413 179.428 243.472 179.5L243.622 179.676C243.942 180.065 244.144 180.536 244.205 181.036L244.549 183.913L243.084 182.757L236.993 182.36L236.428 181.142C236.302 180.869 236.233 180.573 236.223 180.273C236.214 179.973 236.266 179.674 236.375 179.394Z" fill="#FFC1B4"/>
<path d="M291.254 129.351C292.464 136.599 293.126 139.635 290.371 144.155C286.223 150.943 277.077 150.899 273.741 144.155C270.731 138.108 269.265 127.277 275.586 122.784C276.968 121.783 278.584 121.155 280.279 120.96C281.974 120.765 283.69 121.008 285.264 121.668C286.837 122.327 288.215 123.381 289.264 124.726C290.313 126.072 290.998 127.664 291.254 129.351Z" fill="#FFC1B4"/>
<path d="M271.896 170.09C264.834 178.758 278.075 189.607 294.574 186.165C318.196 181.221 298.105 170.973 305.952 163.54C313.8 156.107 306.906 151.482 302.13 145.965C297.354 140.448 296.992 140.28 297.346 129.705C297.699 119.129 285.808 116.464 276.901 119.483C270.422 121.689 273.37 131.735 277.14 136.899C280.909 142.063 270.607 145.223 271.287 152.285C271.967 159.347 278.526 161.995 271.896 170.09Z" fill="#2C3131"/>
<path d="M282.622 118.37C275.048 117.567 269.99 118.538 269.381 124.823C268.771 131.108 278.084 134.78 278.084 134.78L282.622 118.37Z" fill="#170F49"/>
<path d="M279.434 135.672C279.6 137.087 279.204 138.51 278.331 139.635C277.157 141.11 275.48 140.333 274.888 138.656C274.35 137.146 274.323 134.551 275.939 133.677C276.294 133.494 276.69 133.403 277.089 133.411C277.489 133.42 277.88 133.528 278.228 133.727C278.575 133.925 278.867 134.206 279.078 134.546C279.288 134.886 279.411 135.273 279.434 135.672Z" fill="#FFC1B4"/>
<path d="M276.681 203.122C276.681 203.122 278.34 218.358 280.547 236.798C281.959 248.565 283.593 261.638 285.164 272.893C285.552 275.745 285.949 278.472 286.329 281.041C289.772 304.142 303.039 359.605 303.039 359.605H313.12C313.12 359.605 307.488 306.031 305.811 283.177C301.565 225.367 308.309 216.557 298.749 203.157L276.681 203.122Z" fill="#00BF63"/>
<path d="M301.379 359.737H314.779L314.55 354.971L300.276 354.609L301.379 359.737Z" fill="#00BF63"/>
<path opacity="0.8" d="M301.379 359.737H314.779L314.55 354.971L300.276 354.609L301.379 359.737Z" fill="white"/>
<path opacity="0.4" d="M280.547 236.799C281.959 248.566 283.592 261.639 285.164 272.894C287.512 260.941 292.808 231.405 284.484 226.215C282.48 228.863 281.235 232.561 280.547 236.799Z" fill="#170F49"/>
<path d="M268.744 203.113C268.744 203.113 263.969 258.655 264.331 281.2C264.684 304.655 270.598 359.57 270.598 359.57H280.564C280.564 359.57 281.659 306.023 282.692 282.992C283.822 257.878 290.733 203.113 290.733 203.113H268.744Z" fill="#00BF63"/>
<path d="M269.063 359.737H282.216L282.454 354.971L267.96 354.609L269.063 359.737Z" fill="#00BF63"/>
<path opacity="0.8" d="M269.063 359.737H282.216L282.454 354.971L267.96 354.609L269.063 359.737Z" fill="white"/>
<path d="M299.235 201.356L300.576 204.004C300.673 204.216 300.426 204.428 300.082 204.428H268.586C268.321 204.428 268.092 204.296 268.083 204.128L267.827 201.48C267.827 201.294 268.047 201.136 268.339 201.136H298.749C298.842 201.127 298.936 201.143 299.021 201.182C299.106 201.22 299.18 201.28 299.235 201.356Z" fill="#00BF63"/>
<path opacity="0.5" d="M299.235 201.356L300.576 204.004C300.673 204.216 300.426 204.428 300.082 204.428H268.586C268.321 204.428 268.092 204.296 268.083 204.128L267.827 201.48C267.827 201.294 268.047 201.136 268.339 201.136H298.749C298.842 201.127 298.936 201.143 299.021 201.182C299.106 201.22 299.18 201.28 299.235 201.356Z" fill="white"/>
<path d="M295.166 204.737H295.978C296.146 204.737 296.269 204.658 296.26 204.552L295.898 201.021C295.898 200.924 295.748 200.835 295.581 200.835H294.768C294.61 200.835 294.486 200.924 294.495 201.021L294.857 204.552C294.83 204.675 294.971 204.737 295.166 204.737Z" fill="#170F49"/>
<path d="M275.391 204.737H276.203C276.362 204.737 276.486 204.658 276.477 204.552L276.124 201.021C276.124 200.924 275.965 200.835 275.806 200.835H274.994C274.826 200.835 274.703 200.924 274.712 201.021L275.074 204.552C275.082 204.675 275.224 204.737 275.391 204.737Z" fill="#170F49"/>
<path d="M114.594 310.745C115.896 309.828 117.299 308.196 117.345 306.473C117.362 306.069 117.294 305.666 117.147 305.289C116.999 304.913 116.774 304.572 116.486 304.288C116.199 304.004 115.855 303.783 115.477 303.64C115.099 303.496 114.695 303.434 114.291 303.456C111.862 303.676 109.707 307.49 109.194 309.608C109.194 309.792 108.827 312.735 108.873 312.726C108.918 312.717 113.054 311.836 114.594 310.745Z" fill="#FFD300"/>
<path d="M93.6068 356.718C93.5487 356.391 93.4218 356.08 93.2345 355.805C93.0472 355.531 92.8039 355.299 92.5205 355.126C92.237 354.953 91.9201 354.841 91.5905 354.8C91.2609 354.758 90.9262 354.787 90.6086 354.884C88.7748 355.517 87.7387 358.955 87.7662 360.734C87.7662 360.844 87.9405 362.182 88.0413 362.861C87.8304 362.338 87.6287 361.806 87.4178 361.256C87.1153 360.459 86.8219 359.615 86.501 358.79L86.0883 357.479C85.9416 357.039 85.8499 356.562 85.7307 356.158C85.5657 355.498 85.4282 354.811 85.2907 354.123C86.781 353.709 88.1977 353.066 89.49 352.216C90.4894 351.299 91.5071 349.951 91.4062 348.548C91.3943 348.219 91.313 347.895 91.1676 347.599C91.0223 347.303 90.8161 347.041 90.5626 346.83C90.3091 346.619 90.014 346.463 89.6965 346.374C89.379 346.285 89.0462 346.263 88.7198 346.311C86.7668 346.659 85.2631 349.905 85.0523 351.666C85.0523 351.721 85.0523 352.097 85.0523 352.583C84.9422 351.904 84.823 351.235 84.7313 350.547C84.4563 348.603 84.2454 346.614 84.0254 344.624C83.9795 344.202 83.9245 343.79 83.8787 343.377C85.4112 342.947 86.8701 342.289 88.2063 341.424C89.2057 340.507 90.2235 339.159 90.1226 337.757C90.1092 337.427 90.027 337.105 89.8812 336.809C89.7354 336.514 89.5292 336.252 89.2761 336.042C89.0229 335.831 88.7284 335.675 88.4115 335.585C88.0946 335.495 87.7623 335.473 87.4362 335.519C85.4832 335.868 83.9795 339.114 83.7686 340.874C83.7686 340.938 83.7686 341.387 83.7686 341.883C83.6311 340.81 83.4844 339.728 83.301 338.664C83.0012 336.839 82.5816 335.034 82.0449 333.264C82.2924 333.19 85.3823 332.255 86.5101 331.274C87.5003 330.357 88.5273 329.009 88.4172 327.607C88.4053 327.277 88.3239 326.954 88.1786 326.657C88.0332 326.361 87.8271 326.099 87.5736 325.888C87.3201 325.677 87.025 325.522 86.7075 325.432C86.3899 325.343 86.0571 325.322 85.7307 325.369C83.7778 325.718 82.2741 328.964 82.0632 330.724C82.0632 330.843 82.0082 332.475 82.0174 333.053C82.0134 333.032 82.0134 333.01 82.0174 332.989C81.4412 331.265 80.714 329.596 79.8444 328.001C79.0777 326.57 78.2265 325.186 77.2954 323.857C76.4427 322.61 75.59 321.528 74.8198 320.574C74.4073 320.061 74.013 319.593 73.6462 319.171C73.6462 319.171 72.9861 316.87 72.9219 316.723C72.2159 315.1 69.8962 312.377 67.9157 312.579C67.5892 312.62 67.2749 312.73 66.9936 312.901C66.7123 313.071 66.4703 313.3 66.2834 313.571C66.0964 313.842 65.9688 314.149 65.9088 314.473C65.8488 314.796 65.8578 315.129 65.9353 315.449C66.2103 316.824 67.5673 317.879 68.7684 318.456C70.2959 318.937 71.8892 319.175 73.4904 319.162C73.8663 319.621 74.2606 320.079 74.6823 320.648C75.425 321.619 76.2594 322.72 77.0754 323.976C77.2955 324.315 77.5155 324.682 77.7355 325.03C77.2404 324.517 76.5528 323.811 76.4703 323.756C75.0949 322.637 71.785 321.289 70.1254 322.371C69.8541 322.56 69.6255 322.803 69.4543 323.085C69.2831 323.368 69.1731 323.683 69.1316 324.011C69.0901 324.338 69.118 324.671 69.2134 324.987C69.3088 325.304 69.4695 325.596 69.6853 325.846C70.1853 326.34 70.7853 326.72 71.4449 326.962C72.1044 327.204 72.8082 327.302 73.5087 327.249C74.884 327.249 77.488 325.965 78.0931 325.69C78.5791 326.479 79.01 327.304 79.496 328.193C80.3204 329.786 81.0016 331.449 81.5314 333.163C81.5314 333.264 81.5314 333.374 81.6048 333.475C81.4031 333.172 80.1836 331.641 80.0828 331.522C78.8358 330.256 75.6909 328.551 73.9213 329.45C73.6307 329.606 73.3765 329.823 73.1752 330.084C72.9738 330.346 72.83 330.647 72.7529 330.968C72.6759 331.289 72.6675 331.623 72.7282 331.947C72.789 332.272 72.9174 332.58 73.1053 332.851C73.8571 334.025 75.5075 334.529 76.8278 334.63C78.3498 334.749 81.5039 333.585 81.6231 333.539C82.1025 335.265 82.47 337.02 82.7234 338.793C82.9159 340.104 83.0626 341.433 83.191 342.781C82.9251 342.396 81.779 340.947 81.6873 340.856C80.4404 339.59 77.2955 337.894 75.5259 338.783C75.2353 338.94 74.981 339.156 74.7797 339.418C74.5784 339.68 74.4345 339.981 74.3575 340.302C74.2805 340.623 74.2721 340.957 74.3328 341.281C74.3935 341.606 74.522 341.914 74.7098 342.185C75.4617 343.368 77.1121 343.863 78.4324 343.964C79.9177 344.083 82.9434 342.983 83.2002 342.891C83.2644 343.496 83.3194 344.111 83.3744 344.725C83.5578 346.724 83.7228 348.722 83.952 350.694C84.0345 351.372 84.1354 352.042 84.2363 352.711C83.8145 352.152 83.0168 351.152 82.9434 351.07C81.6965 349.814 78.5516 348.108 76.782 349.007C76.4909 349.162 76.236 349.376 76.0338 349.637C75.8316 349.897 75.6868 350.198 75.6088 350.518C75.5309 350.838 75.5216 351.172 75.5816 351.496C75.6416 351.82 75.7694 352.128 75.9568 352.399C76.7178 353.582 78.3682 354.077 79.6885 354.178C81.26 354.077 82.8064 353.734 84.2729 353.16C84.4471 354.279 84.6397 355.379 84.8872 356.452C85.0064 356.919 85.0981 357.369 85.2356 357.827C85.3732 358.286 85.4832 358.744 85.6116 359.147C85.905 360.064 86.1709 360.862 86.4643 361.687C86.611 362.1 86.7577 362.485 86.9044 362.888C86.5651 362.256 85.9875 361.265 85.9325 361.183C84.8964 359.753 82.0449 357.589 80.1561 358.203C79.8456 358.314 79.5619 358.489 79.3237 358.717C79.0854 358.945 78.8979 359.221 78.7733 359.527C78.6487 359.832 78.5899 360.16 78.6007 360.49C78.6115 360.819 78.6916 361.143 78.8358 361.44C79.4043 362.723 80.963 363.466 82.2466 363.768C83.5302 364.071 86.7302 363.503 87.0969 363.429C87.4637 364.41 87.8304 365.364 88.1788 366.253C89.3066 369.059 90.3427 371.351 91.0945 372.946C91.8464 374.542 92.314 375.44 92.314 375.44C92.4011 375.596 92.5455 375.712 92.7167 375.764C92.8878 375.815 93.0722 375.798 93.2309 375.715C93.3851 375.627 93.4996 375.482 93.5507 375.312C93.6019 375.141 93.5859 374.958 93.5059 374.799C93.5059 374.799 93.0383 373.937 92.259 372.369C91.4796 370.801 90.4252 368.564 89.2332 365.813C88.894 365.015 88.5456 364.172 88.1972 363.301C88.5547 363.127 91.3513 361.779 92.2865 360.66C93.2217 359.542 93.9185 358.084 93.6068 356.718Z" fill="#FFD300"/>
<path d="M78.0927 325.305C78.0927 325.305 81.0542 323.472 81.9069 322.179C82.6404 321.069 83.2547 319.428 82.8238 318.145C82.7242 317.831 82.5597 317.541 82.341 317.295C82.1222 317.049 81.854 316.851 81.5539 316.716C81.2539 316.58 80.9286 316.509 80.5992 316.507C80.2698 316.505 79.9438 316.573 79.6422 316.705C77.8085 317.549 77.2583 321.079 77.4875 322.839C77.4875 322.986 78.0927 325.324 78.0927 325.305Z" fill="#FFD300"/>
<path d="M123.222 310.746C124.753 311.882 128.953 312.726 128.953 312.726C128.953 312.726 128.678 309.792 128.632 309.609C128.146 307.491 125.973 303.676 123.543 303.456C123.139 303.433 122.735 303.494 122.356 303.637C121.977 303.78 121.633 304.001 121.345 304.285C121.057 304.569 120.832 304.911 120.685 305.288C120.538 305.665 120.471 306.069 120.49 306.473C120.508 308.151 121.911 309.737 123.222 310.746Z" fill="#FFD300"/>
<path d="M140.642 351.409C138.212 351.51 135.838 355.205 135.251 357.305C135.251 357.424 134.994 358.808 134.866 359.689C134.866 359.157 134.866 358.653 134.866 358.112C134.866 357.039 134.811 355.966 134.765 354.82C134.765 354.27 134.692 353.711 134.646 353.142C134.6 352.574 134.517 351.987 134.453 351.409C134.279 350.061 134.041 348.714 133.766 347.347C134.682 347.347 138.038 347.247 139.514 346.568C140.991 345.89 142.678 344.606 143.044 342.901C143.147 342.508 143.165 342.099 143.097 341.699C143.03 341.3 142.879 340.919 142.653 340.582C142.428 340.245 142.134 339.96 141.791 339.744C141.447 339.529 141.062 339.389 140.661 339.334C138.24 339.05 135.333 342.35 134.435 344.34C134.38 344.459 133.894 345.954 133.646 346.779C133.472 345.963 133.307 345.147 133.115 344.331C132.537 341.965 131.877 339.591 131.235 337.216C131.033 336.492 130.85 335.758 130.657 335.034C131.18 335.034 134.994 335.034 136.608 334.245C138.222 333.457 139.771 332.283 140.138 330.578C140.239 330.186 140.256 329.777 140.187 329.378C140.119 328.978 139.968 328.598 139.743 328.262C139.518 327.925 139.225 327.64 138.882 327.424C138.539 327.209 138.155 327.068 137.754 327.011C135.333 326.736 132.436 330.037 131.538 332.017C131.464 332.164 130.767 334.319 130.621 334.878C130.199 333.273 129.795 331.678 129.465 330.083C129.008 327.939 128.693 325.767 128.521 323.582C128.805 323.582 132.84 323.582 134.508 322.793C135.984 322.115 137.672 320.831 138.047 319.126C138.147 318.733 138.162 318.324 138.093 317.925C138.024 317.526 137.871 317.146 137.646 316.809C137.42 316.473 137.126 316.188 136.783 315.972C136.44 315.757 136.055 315.616 135.654 315.559C133.234 315.284 130.336 318.585 129.438 320.565C129.365 320.721 128.622 323.041 128.521 323.463C128.521 323.343 128.521 323.206 128.521 323.078C128.398 320.878 128.472 318.672 128.741 316.485C128.879 315.275 129.071 314.12 129.291 313.01C130.08 313.093 133.582 313.404 135.187 312.864C136.791 312.323 138.552 311.268 139.102 309.636C139.243 309.257 139.303 308.853 139.279 308.449C139.254 308.046 139.144 307.652 138.958 307.293C138.771 306.934 138.511 306.619 138.195 306.367C137.878 306.115 137.513 305.933 137.121 305.831C134.737 305.29 131.492 308.252 130.382 310.122C130.327 310.223 129.823 311.323 129.465 312.139C129.566 311.635 129.667 311.112 129.777 310.635C130.19 308.802 130.694 307.216 131.116 305.785C131.372 304.978 131.62 304.245 131.858 303.566C132.656 303.245 135.847 301.934 137.002 300.733C138.157 299.532 139.249 297.762 138.983 296.066C138.935 295.664 138.803 295.276 138.596 294.929C138.388 294.581 138.11 294.281 137.778 294.048C137.447 293.815 137.07 293.655 136.672 293.578C136.275 293.5 135.865 293.508 135.471 293.6C133.115 294.214 131.602 298.34 131.473 300.513C131.473 300.696 131.638 303.658 131.675 303.64H131.721C131.483 304.291 131.226 304.987 130.96 305.758C130.492 307.179 129.97 308.793 129.52 310.59C129.012 312.518 128.617 314.474 128.338 316.449C128.018 318.658 127.895 320.892 127.971 323.123V323.206C127.732 322.537 126.999 320.675 126.926 320.547C125.899 318.622 122.781 315.522 120.388 315.963C119.852 316.059 119.359 316.318 118.976 316.705C118.595 316.316 118.101 316.056 117.564 315.963C115.171 315.532 112.063 318.631 111.036 320.547C110.963 320.675 110.22 322.537 109.982 323.206C109.982 323.206 109.982 323.151 109.982 323.123C110.055 320.892 109.929 318.658 109.606 316.449C109.324 314.475 108.932 312.519 108.432 310.59C107.983 308.756 107.46 307.179 106.983 305.758C106.718 304.987 106.47 304.291 106.222 303.64H106.268C106.268 303.64 106.479 300.696 106.47 300.513C106.351 298.34 104.829 294.214 102.472 293.6C102.078 293.508 101.669 293.5 101.271 293.578C100.873 293.655 100.497 293.815 100.165 294.048C99.8337 294.281 99.5551 294.581 99.3476 294.929C99.1401 295.276 99.0082 295.664 98.9607 296.066C98.6948 297.762 99.8134 299.569 100.941 300.733C102.069 301.898 105.287 303.245 106.085 303.566C106.323 304.245 106.571 304.978 106.837 305.785C107.277 307.216 107.754 308.838 108.166 310.635C108.276 311.112 108.377 311.635 108.487 312.139C108.13 311.323 107.634 310.223 107.57 310.122C106.461 308.288 103.215 305.29 100.84 305.831C100.448 305.931 100.082 306.113 99.7644 306.365C99.4473 306.616 99.1868 306.932 98.9999 307.291C98.813 307.65 98.704 308.045 98.6798 308.449C98.6557 308.853 98.717 309.257 98.8599 309.636C99.41 311.268 101.225 312.387 102.766 312.864C104.306 313.34 107.873 313.093 108.671 313.01C108.881 314.12 109.074 315.275 109.211 316.485C109.484 318.671 109.56 320.878 109.441 323.078C109.441 323.206 109.441 323.343 109.395 323.463C109.294 323.041 108.542 320.712 108.478 320.565C107.561 318.585 104.673 315.284 102.252 315.559C101.852 315.616 101.467 315.757 101.124 315.972C100.782 316.188 100.488 316.473 100.263 316.81C100.038 317.146 99.8869 317.527 99.8189 317.926C99.7508 318.325 99.7677 318.734 99.8684 319.126C100.235 320.804 101.922 322.087 103.398 322.793C105.067 323.564 109.101 323.582 109.386 323.582C109.204 325.773 108.882 327.951 108.423 330.101C108.084 331.696 107.68 333.292 107.259 334.896C107.112 334.337 106.415 332.146 106.342 332.036C105.425 330.055 102.537 326.754 100.116 327.029C99.7152 327.086 99.3308 327.227 98.9881 327.443C98.6454 327.658 98.352 327.943 98.127 328.28C97.902 328.617 97.7506 328.997 97.6826 329.396C97.6145 329.795 97.6314 330.204 97.7321 330.596C98.0989 332.274 99.7859 333.558 101.262 334.264C102.876 335.006 106.699 335.052 107.213 335.052C107.02 335.776 106.837 336.51 106.635 337.234C105.993 339.609 105.333 341.984 104.801 344.349C104.6 345.165 104.435 345.981 104.26 346.797C104.013 345.972 103.527 344.478 103.472 344.358C102.555 342.369 99.6667 339.068 97.2462 339.352C96.8453 339.409 96.461 339.55 96.1183 339.765C95.7756 339.981 95.4821 340.266 95.2572 340.603C95.0322 340.939 94.8808 341.32 94.8127 341.719C94.7447 342.118 94.7615 342.527 94.8623 342.919C95.229 344.597 96.9161 345.871 98.3923 346.586C99.8684 347.302 103.188 347.357 104.141 347.366C103.866 348.732 103.628 350.116 103.453 351.428C103.389 352.005 103.288 352.601 103.261 353.16C103.233 353.72 103.178 354.288 103.142 354.838C103.096 355.984 103.059 357.057 103.05 358.13C103.05 358.671 103.05 359.175 103.05 359.707C102.922 358.79 102.692 357.442 102.656 357.323C102.069 355.223 99.7034 351.528 97.2645 351.428C96.8601 351.424 96.4596 351.506 96.0889 351.668C95.7182 351.829 95.3855 352.067 95.1124 352.365C94.8393 352.663 94.6318 353.015 94.5034 353.399C94.3751 353.782 94.3286 354.188 94.3671 354.591C94.4772 356.315 95.9533 357.827 97.3103 358.726C98.6673 359.624 102.445 360.312 103.041 360.404C103.041 361.697 103.041 362.944 103.041 364.117C103.142 367.831 103.362 370.911 103.545 373.075C103.729 375.239 103.884 376.468 103.884 376.468C103.937 376.675 104.065 376.856 104.243 376.974C104.421 377.093 104.637 377.141 104.849 377.108C105.061 377.076 105.253 376.967 105.388 376.801C105.523 376.635 105.592 376.425 105.581 376.211C105.581 376.211 105.406 375.019 105.177 372.883C104.948 370.746 104.664 367.702 104.48 364.035C104.435 362.98 104.389 361.853 104.361 360.697C104.966 360.642 108.68 360.266 110.193 359.404C111.705 358.543 113.182 357.176 113.402 355.471C113.467 355.072 113.447 354.663 113.344 354.272C113.241 353.881 113.056 353.515 112.803 353.2C112.55 352.884 112.233 352.626 111.873 352.44C111.514 352.255 111.119 352.147 110.715 352.124C108.276 352.06 105.672 355.599 104.948 357.626C104.902 357.754 104.526 359.368 104.361 360.193C104.361 359.496 104.361 358.808 104.361 358.075C104.361 357.039 104.361 355.929 104.361 354.857C104.361 354.307 104.425 353.747 104.453 353.179C104.48 352.61 104.554 352.06 104.6 351.501C104.691 350.667 104.82 349.823 104.957 348.97C106.048 349.025 109.156 349.117 110.614 348.558C112.072 347.998 113.906 346.806 114.374 345.156C114.499 344.772 114.543 344.365 114.501 343.962C114.459 343.56 114.333 343.171 114.13 342.82C113.928 342.47 113.654 342.166 113.326 341.929C112.998 341.691 112.624 341.526 112.228 341.443C109.835 341.003 106.727 344.111 105.691 346.027L105.287 347.027C105.434 346.201 105.59 345.376 105.773 344.551C106.287 342.195 106.892 339.811 107.488 337.418L107.845 335.923C108.762 335.969 112.136 336.106 113.668 335.52C115.199 334.933 116.959 333.768 117.436 332.118C117.56 331.733 117.602 331.326 117.559 330.923C117.516 330.521 117.389 330.132 117.185 329.782C116.982 329.431 116.708 329.128 116.38 328.891C116.052 328.654 115.677 328.488 115.281 328.405C112.888 327.965 109.78 331.073 108.744 332.989C108.744 333.062 108.505 333.567 108.276 334.144C108.579 332.842 108.863 331.54 109.111 330.238C109.545 328.008 109.827 325.75 109.954 323.481C110.468 323.481 114.291 323.719 115.951 323.078C117.115 322.652 118.154 321.943 118.976 321.015C119.798 321.943 120.838 322.652 122.002 323.078C123.662 323.719 127.503 323.509 127.998 323.481C128.13 325.75 128.412 328.007 128.842 330.238C129.089 331.54 129.374 332.842 129.676 334.144C129.447 333.567 129.245 333.062 129.209 332.989C128.182 331.073 125.074 327.965 122.671 328.405C122.275 328.488 121.901 328.653 121.573 328.891C121.246 329.128 120.972 329.432 120.769 329.782C120.567 330.133 120.44 330.522 120.398 330.924C120.357 331.327 120.4 331.733 120.526 332.118C121.003 333.768 122.772 334.933 124.285 335.52C125.798 336.106 129.209 335.969 130.107 335.923C130.226 336.427 130.346 336.923 130.474 337.418C131.061 339.811 131.666 342.195 132.189 344.551C132.372 345.376 132.519 346.201 132.674 347.027C132.473 346.522 132.299 346.11 132.262 346.027C131.235 344.111 128.127 341.003 125.725 341.443C125.328 341.526 124.954 341.691 124.627 341.929C124.299 342.166 124.025 342.47 123.822 342.82C123.62 343.171 123.494 343.56 123.452 343.962C123.41 344.365 123.453 344.772 123.579 345.156C124.056 346.806 125.825 347.971 127.338 348.558C128.851 349.145 131.923 349.025 133.005 348.97C133.133 349.823 133.27 350.667 133.353 351.501C133.408 352.06 133.491 352.601 133.509 353.179C133.527 353.756 133.564 354.307 133.591 354.857C133.591 355.929 133.591 357.039 133.591 358.075C133.591 358.808 133.591 359.496 133.591 360.193C133.417 359.368 133.041 357.754 132.995 357.626C132.271 355.572 129.667 352.033 127.228 352.124C126.824 352.147 126.43 352.255 126.07 352.44C125.71 352.626 125.394 352.884 125.14 353.2C124.887 353.515 124.703 353.881 124.6 354.272C124.497 354.663 124.477 355.072 124.542 355.471C124.762 357.176 126.376 358.598 127.751 359.404C129.126 360.211 132.977 360.642 133.582 360.697C133.582 361.853 133.518 362.98 133.463 364.035C133.289 367.702 133.005 370.755 132.775 372.883C132.546 375.01 132.363 376.211 132.363 376.211C132.351 376.425 132.42 376.635 132.555 376.801C132.691 376.967 132.883 377.076 133.094 377.108C133.306 377.141 133.522 377.093 133.7 376.974C133.879 376.856 134.007 376.675 134.059 376.468C134.059 376.468 134.215 375.23 134.407 373.075C134.6 370.921 134.811 367.831 134.903 364.117C134.903 362.944 134.948 361.697 134.948 360.404C135.544 360.312 139.221 359.698 140.688 358.726C142.155 357.754 143.521 356.315 143.622 354.591C143.664 354.18 143.618 353.764 143.486 353.373C143.354 352.981 143.139 352.623 142.857 352.321C142.575 352.02 142.231 351.782 141.849 351.625C141.467 351.467 141.055 351.394 140.642 351.409Z" fill="#FFD300"/>
<g filter="url(#filter0_d_189_4328)">
<rect x="110.819" y="126.928" width="3.71007" height="25.8811" rx="1.85503" fill="white"/>
</g>
<g filter="url(#filter1_d_189_4328)">
<rect x="135.195" y="114.618" width="3.71007" height="37.9561" rx="1.85503" fill="white"/>
</g>
<g filter="url(#filter2_d_189_4328)">
<rect x="159.572" y="125.407" width="3.71007" height="27.4022" rx="1.85503" fill="white"/>
</g>
<g filter="url(#filter3_d_189_4328)">
<rect x="171.76" y="111.58" width="3.71007" height="40.9943" rx="1.85503" fill="white"/>
</g>
<g filter="url(#filter4_d_189_4328)">
<rect x="147.384" y="136.738" width="3.71007" height="16.0711" rx="1.85503" fill="white"/>
</g>
<rect x="123.007" y="100.577" width="3.71007" height="52.2329" rx="1.85503" fill="#962DFF"/>
<rect x="135.195" y="114.618" width="3.71007" height="38.1914" rx="1.85503" fill="#00BF63"/>
<rect x="147.384" y="136.738" width="3.71007" height="16.0713" rx="1.85503" fill="#962DFF"/>
<rect x="159.572" y="125.407" width="3.71007" height="27.402" rx="1.85503" fill="#00BF63"/>
<rect x="171.761" y="111.348" width="3.71007" height="41.4613" rx="1.85503" fill="#962DFF"/>
<rect x="110.819" y="126.928" width="3.71007" height="25.8811" rx="1.85503" fill="#00BF63"/>
<defs>
<filter id="filter0_d_189_4328" x="107.414" y="123.523" width="10.5205" height="32.6917" filterUnits="userSpaceOnUse" color-interpolation-filters="sRGB">
<feFlood flood-opacity="0" result="BackgroundImageFix"/>
<feColorMatrix in="SourceAlpha" type="matrix" values="0 0 0 0 0 0 0 0 0 0 0 0 0 0 0 0 0 0 127 0" result="hardAlpha"/>
<feOffset/>
<feGaussianBlur stdDeviation="1.70264"/>
<feColorMatrix type="matrix" values="0 0 0 0 0.290196 0 0 0 0 0.227451 0 0 0 0 1 0 0 0 0.25 0"/>
<feBlend mode="normal" in2="BackgroundImageFix" result="effect1_dropShadow_189_4328"/>
<feBlend mode="normal" in="SourceGraphic" in2="effect1_dropShadow_189_4328" result="shape"/>
</filter>
<filter id="filter1_d_189_4328" x="131.79" y="111.212" width="10.5205" height="44.7666" filterUnits="userSpaceOnUse" color-interpolation-filters="sRGB">
<feFlood flood-opacity="0" result="BackgroundImageFix"/>
<feColorMatrix in="SourceAlpha" type="matrix" values="0 0 0 0 0 0 0 0 0 0 0 0 0 0 0 0 0 0 127 0" result="hardAlpha"/>
<feOffset/>
<feGaussianBlur stdDeviation="1.70264"/>
<feColorMatrix type="matrix" values="0 0 0 0 0.290196 0 0 0 0 0.227451 0 0 0 0 1 0 0 0 0.25 0"/>
<feBlend mode="normal" in2="BackgroundImageFix" result="effect1_dropShadow_189_4328"/>
<feBlend mode="normal" in="SourceGraphic" in2="effect1_dropShadow_189_4328" result="shape"/>
</filter>
<filter id="filter2_d_189_4328" x="156.167" y="122.002" width="10.5205" height="34.2127" filterUnits="userSpaceOnUse" color-interpolation-filters="sRGB">
<feFlood flood-opacity="0" result="BackgroundImageFix"/>
<feColorMatrix in="SourceAlpha" type="matrix" values="0 0 0 0 0 0 0 0 0 0 0 0 0 0 0 0 0 0 127 0" result="hardAlpha"/>
<feOffset/>
<feGaussianBlur stdDeviation="1.70264"/>
<feColorMatrix type="matrix" values="0 0 0 0 0.290196 0 0 0 0 0.227451 0 0 0 0 1 0 0 0 0.25 0"/>
<feBlend mode="normal" in2="BackgroundImageFix" result="effect1_dropShadow_189_4328"/>
<feBlend mode="normal" in="SourceGraphic" in2="effect1_dropShadow_189_4328" result="shape"/>
</filter>
<filter id="filter3_d_189_4328" x="168.354" y="108.175" width="10.5205" height="47.8049" filterUnits="userSpaceOnUse" color-interpolation-filters="sRGB">
<feFlood flood-opacity="0" result="BackgroundImageFix"/>
<feColorMatrix in="SourceAlpha" type="matrix" values="0 0 0 0 0 0 0 0 0 0 0 0 0 0 0 0 0 0 127 0" result="hardAlpha"/>
<feOffset/>
<feGaussianBlur stdDeviation="1.70264"/>
<feColorMatrix type="matrix" values="0 0 0 0 0.588235 0 0 0 0 0.176471 0 0 0 0 1 0 0 0 0.25 0"/>
<feBlend mode="normal" in2="BackgroundImageFix" result="effect1_dropShadow_189_4328"/>
<feBlend mode="normal" in="SourceGraphic" in2="effect1_dropShadow_189_4328" result="shape"/>
</filter>
<filter id="filter4_d_189_4328" x="142.487" y="131.841" width="13.5038" height="25.8649" filterUnits="userSpaceOnUse" color-interpolation-filters="sRGB">
<feFlood flood-opacity="0" result="BackgroundImageFix"/>
<feColorMatrix in="SourceAlpha" type="matrix" values="0 0 0 0 0 0 0 0 0 0 0 0 0 0 0 0 0 0 127 0" result="hardAlpha"/>
<feOffset/>
<feGaussianBlur stdDeviation="2.44846"/>
<feColorMatrix type="matrix" values="0 0 0 0 0.588235 0 0 0 0 0.176471 0 0 0 0 1 0 0 0 0.25 0"/>
<feBlend mode="normal" in2="BackgroundImageFix" result="effect1_dropShadow_189_4328"/>
<feBlend mode="normal" in="SourceGraphic" in2="effect1_dropShadow_189_4328" result="shape"/>
</filter>
</defs>
</svg>
