<svg width="90" height="90" viewBox="0 0 90 90" fill="none" xmlns="http://www.w3.org/2000/svg">
<path d="M20.5519 69.3369V58.387C20.5519 54.7495 23.4019 51.4869 27.4519 51.4869C31.0894 51.4869 34.3519 54.337 34.3519 58.387V68.9245C34.3519 76.237 28.2769 82.312 20.9644 82.312C13.6519 82.312 7.57684 76.1995 7.57684 68.9245V45.8243C7.16434 24.7493 23.8144 7.68689 44.8894 7.68689C65.9644 7.68689 82.5768 24.7494 82.5768 45.4119V68.512C82.5768 75.8245 76.5019 81.8995 69.1894 81.8995C61.8769 81.8995 55.8019 75.8245 55.8019 68.512V57.9745C55.8019 54.337 58.6519 51.0744 62.7019 51.0744C66.3394 51.0744 69.6019 53.9245 69.6019 57.9745V69.3369" stroke="#00BF63" stroke-width="1.5" stroke-linecap="round" stroke-linejoin="round"/>
<path d="M58.2371 34.1991H55.1996C54.3746 34.1991 53.5872 34.6866 53.2122 35.3991L50.3997 41.0241C49.9872 41.8491 48.8247 41.8491 48.4122 41.0241L41.5122 27.2617C41.0997 26.4742 39.9746 26.4367 39.5621 27.2242L36.4121 33.0366C36.0371 33.7491 35.2872 34.1991 34.4622 34.1991H31.7246" stroke="#00BF63" stroke-width="1.5" stroke-linecap="round" stroke-linejoin="round"/>
</svg>
