<svg width="90" height="90" viewBox="0 0 90 90" fill="none" xmlns="http://www.w3.org/2000/svg">
<path d="M45.5996 40.7625C45.2246 40.725 44.7746 40.725 44.3621 40.7625C35.4371 40.4625 28.3496 33.15 28.3496 24.15C28.3496 14.9625 35.7746 7.5 44.9996 7.5C54.1871 7.5 61.6496 14.9625 61.6496 24.15C61.6121 33.15 54.5246 40.4625 45.5996 40.7625Z" stroke="#00BF63" stroke-width="1.5" stroke-linecap="round" stroke-linejoin="round"/>
<path d="M26.8492 54.6002C17.7742 60.6752 17.7742 70.5752 26.8492 76.6127C37.1617 83.5127 54.0742 83.5127 64.3867 76.6127C73.4617 70.5377 73.4617 60.6377 64.3867 54.6002C54.1117 47.7377 37.1992 47.7377 26.8492 54.6002Z" stroke="#00BF63" stroke-width="1.5" stroke-linecap="round" stroke-linejoin="round"/>
</svg>
