<svg width="90" height="90" viewBox="0 0 90 90" fill="none" xmlns="http://www.w3.org/2000/svg">
<path d="M51.4855 13.1625L58.0855 26.3625C58.9855 28.2 61.3855 29.9625 63.4105 30.3L75.373 32.2875C83.023 33.5625 84.823 39.1125 79.3105 44.5875L70.0105 53.8875C68.4355 55.4625 67.573 58.5 68.0605 60.675L70.723 72.1875C72.823 81.3 67.9855 84.825 59.923 80.0625L48.7105 73.425C46.6855 72.225 43.348 72.225 41.2855 73.425L30.073 80.0625C22.048 84.825 17.173 81.2625 19.273 72.1875L21.9355 60.675C22.423 58.5 21.5605 55.4625 19.9855 53.8875L10.6854 44.5875C5.21045 39.1125 6.97295 33.5625 14.623 32.2875L26.5855 30.3C28.573 29.9625 30.973 28.2 31.873 26.3625L38.473 13.1625C42.073 6.00002 47.923 6.00002 51.4855 13.1625Z" stroke="#00BF63" stroke-width="1.5" stroke-linecap="round" stroke-linejoin="round"/>
</svg>
